<svg xmlns="http://www.w3.org/2000/svg" viewBox="0 0 4656.0 2770.2" role="img" aria-label="Pareeksa">
<g fill="#16181D">
  <path transform="translate(1723.35 100.00) scale(1.04973) translate(-448 -280)" d="M 1070.65 328.425 C 1107.82 342.689 1109.87 370.358 1119.09 404.773 C 1124.88 427.193 1131.17 449.485 1137.93 471.632 C 1158.86 536.275 1184.62 599.253 1214.99 660.032 C 1281.84 791.541 1377.02 921.969 1489.9 1017.78 C 1503.68 1030.02 1523.76 1041.81 1535.28 1055.41 C 1550.67 1073.62 1555.72 1098.41 1548.66 1121.19 C 1543.15 1138.99 1522.01 1166.31 1511.08 1183.56 C 1497.13 1205.93 1483.83 1228.69 1471.19 1251.83 C 1408.52 1366.07 1367.16 1490.78 1349.16 1619.84 C 1344.12 1656.48 1342.81 1683.93 1339.88 1719.96 L 708.518 1719.93 C 696.003 1516.58 637.673 1332.38 523.554 1162.75 C 507.993 1139.62 493.317 1122.24 496.728 1091.96 C 501.662 1048.15 545.063 1033.91 572.219 1005.91 C 722.235 872.725 830.471 696.263 897.771 509.854 C 908.918 478.32 918.812 446.358 927.431 414.041 C 937.524 377.171 937.935 345.895 976.893 328.938 C 978.242 333.249 977.626 368.169 977.615 375.245 L 977.514 479.128 L 977.487 836 C 977.477 901.161 976.744 967.872 977.704 1032.92 C 972.699 1034.83 967.739 1036.86 962.828 1039 C 923.759 1055.86 893.205 1087.86 878.159 1127.66 C 863.396 1166.56 864.658 1209.73 881.667 1247.7 C 912.303 1315.89 992.103 1356.3 1064.85 1334.78 C 1214.7 1290.45 1220.16 1085.64 1070.58 1033.19 C 1069.06 999.571 1070.29 956.216 1070.29 921.653 L 1070.32 704.865 L 1070.25 460.184 C 1070.24 418.19 1069.16 370.117 1070.65 328.425 z"/>
  <path transform="translate(100.00 2670.20) scale(1 -1)" d="M79.999267578125 0V710H354.6004638671875Q479.600830078125 710 549.8010864257812 649.7998046875Q620.0013427734375 589.599609375 620.0013427734375 483.79931640625Q620.0013427734375 413.399169921875 588.2012329101562 361.8990478515625Q556.401123046875 310.39892578125 497.00091552734375 282.99884033203125Q437.6007080078125 255.5987548828125 354.6004638671875 255.5987548828125H210.001953125V0ZM210.001953125 368.800537109375H348.60009765625Q414.999267578125 368.800537109375 450.49896240234375 397.80023193359375Q485.9986572265625 426.7999267578125 485.9986572265625 483.79931640625Q485.9986572265625 539.5987548828125 450.698974609375 568.198486328125Q415.3992919921875 596.7982177734375 348.60009765625 596.7982177734375H210.001953125Z"/>
  <path transform="translate(744.00 2670.20) scale(1 -1)" d="M224.60009765625 -12Q141.4000244140625 -12 90.29986572265625 26.4000244140625Q39.19970703125 64.800048828125 39.19970703125 133.60009765625Q39.19970703125 203.2001953125 82.19989013671875 242.00018310546875Q125.2000732421875 280.8001708984375 212.60009765625 298.000244140625L390.199462890625 332.6002197265625Q390.199462890625 389.599609375 364.09979248046875 418.1993408203125Q338.0001220703125 446.799072265625 287.40087890625 446.799072265625Q240.8013916015625 446.799072265625 214.20172119140625 425.499267578125Q187.60205078125 404.199462890625 178.4022216796875 363.7998046875L48.19970703125 370.3997802734375Q63.5997314453125 454.600341796875 125.70001220703125 500.30029296875Q187.80029296875 546.000244140625 287.40087890625 546.000244140625Q401.401611328125 546.000244140625 459.8018798828125 488.70025634765625Q518.2021484375 431.4002685546875 518.2021484375 324.39990234375V129.8013916015625Q518.2021484375 108.6011962890625 525.502197265625 100.90118408203125Q532.80224609375 93.201171875 547.80224609375 93.201171875H564.802001953125V0Q558.8018798828125 -1.800048828125 545.401611328125 -3.10009765625Q532.0013427734375 -4.400146484375 518.401123046875 -4.400146484375Q485.2012939453125 -4.400146484375 459.30108642578125 6.49981689453125Q433.40087890625 17.3997802734375 419.0006103515625 43.4998779296875Q404.600341796875 69.5999755859375 404.600341796875 115.600341796875L416.200439453125 108Q407.600341796875 72.7999267578125 381.400390625 45.49993896484375Q355.200439453125 18.199951171875 315.00042724609375 3.0999755859375Q274.8004150390625 -12 224.60009765625 -12ZM251.001220703125 81.201171875Q293.6005859375 81.201171875 324.7001953125 97.90093994140625Q355.7998046875 114.6007080078125 372.9996337890625 144.900390625Q390.199462890625 175.2000732421875 390.199462890625 215.599853515625V245.599365234375L251.801513671875 217.599609375Q209.4022216796875 209.19970703125 190.5023193359375 191.4998779296875Q171.6024169921875 173.800048828125 171.6024169921875 145.600341796875Q171.6024169921875 115.000732421875 192.30206298828125 98.1009521484375Q213.001708984375 81.201171875 251.001220703125 81.201171875Z"/>
  <path transform="translate(1304.00 2670.20) scale(1 -1)" d="M70.3994140625 0V534.000244140625H190.002197265625L194.80224609375 385.599365234375L184.402099609375 388.1993408203125Q196.4022216796875 464.9998779296875 229.70220947265625 499.50006103515625Q263.002197265625 534.000244140625 320.602294921875 534.000244140625H370.2021484375V424.3984375H320.4022216796875Q279.2021484375 424.3984375 252.3021240234375 412.298583984375Q225.402099609375 400.19873046875 211.902099609375 374.69891357421875Q198.402099609375 349.1990966796875 198.402099609375 307.5992431640625V0Z"/>
  <path transform="translate(1693.00 2670.20) scale(1 -1)" d="M300.600830078125 -12Q220.800537109375 -12 162.10028076171875 22.4000244140625Q103.4000244140625 56.800048828125 71.29986572265625 119.7000732421875Q39.19970703125 182.60009765625 39.19970703125 267.0001220703125Q39.19970703125 351.400146484375 71.29986572265625 413.8001708984375Q103.4000244140625 476.2001953125 161.50030517578125 511.1002197265625Q219.6005859375 546.000244140625 298.200927734375 546.000244140625Q374.4013671875 546.000244140625 431.60162353515625 511.900146484375Q488.8018798828125 477.800048828125 520.1019897460938 413.7999267578125Q551.402099609375 349.7998046875 551.402099609375 259.999755859375V231.3995361328125H172.00244140625Q175.8023681640625 160.8004150390625 210.302001953125 125.60089111328125Q244.8016357421875 90.4013671875 302.200927734375 90.4013671875Q345.0003662109375 90.4013671875 373.300048828125 109.50103759765625Q401.5997314453125 128.6007080078125 412.9996337890625 163.8004150390625L543.8021240234375 155.600341796875Q522.402099609375 78.199951171875 457.70172119140625 33.0999755859375Q393.0013427734375 -12 300.600830078125 -12ZM172.00244140625 317.4002685546875H418.599609375Q414.5997314453125 382.3995361328125 381.90008544921875 413.79925537109375Q349.200439453125 445.198974609375 298.200927734375 445.198974609375Q246.801513671875 445.198974609375 213.3018798828125 412.29925537109375Q179.80224609375 379.3995361328125 172.00244140625 317.4002685546875Z"/>
  <path transform="translate(2264.00 2670.20) scale(1 -1)" d="M300.600830078125 -12Q220.800537109375 -12 162.10028076171875 22.4000244140625Q103.4000244140625 56.800048828125 71.29986572265625 119.7000732421875Q39.19970703125 182.60009765625 39.19970703125 267.0001220703125Q39.19970703125 351.400146484375 71.29986572265625 413.8001708984375Q103.4000244140625 476.2001953125 161.50030517578125 511.1002197265625Q219.6005859375 546.000244140625 298.200927734375 546.000244140625Q374.4013671875 546.000244140625 431.60162353515625 511.900146484375Q488.8018798828125 477.800048828125 520.1019897460938 413.7999267578125Q551.402099609375 349.7998046875 551.402099609375 259.999755859375V231.3995361328125H172.00244140625Q175.8023681640625 160.8004150390625 210.302001953125 125.60089111328125Q244.8016357421875 90.4013671875 302.200927734375 90.4013671875Q345.0003662109375 90.4013671875 373.300048828125 109.50103759765625Q401.5997314453125 128.6007080078125 412.9996337890625 163.8004150390625L543.8021240234375 155.600341796875Q522.402099609375 78.199951171875 457.70172119140625 33.0999755859375Q393.0013427734375 -12 300.600830078125 -12ZM172.00244140625 317.4002685546875H418.599609375Q414.5997314453125 382.3995361328125 381.90008544921875 413.79925537109375Q349.200439453125 445.198974609375 298.200927734375 445.198974609375Q246.801513671875 445.198974609375 213.3018798828125 412.29925537109375Q179.80224609375 379.3995361328125 172.00244140625 317.4002685546875Z"/>
  <path transform="translate(2835.00 2670.20) scale(1 -1)" d="M70.3994140625 0V710H198.402099609375V292.6029052734375L417.19970703125 534.000244140625H574.802490234375L366.2025146484375 311.8004150390625L581.8023681640625 0H438.1998291015625L282.40087890625 235.999267578125L198.402099609375 146.800537109375V0Z"/>
  <path transform="translate(3443.00 2670.20) scale(1 -1)" d="M287.40087890625 -12Q205.600341796875 -12 152.10009765625 11.20001220703125Q98.599853515625 34.4000244140625 70.8997802734375 75.10003662109375Q43.19970703125 115.800048828125 39.19970703125 168.2000732421875L170.0023193359375 173.800048828125Q177.2022705078125 132.200439453125 203.9019775390625 108.9007568359375Q230.6016845703125 85.60107421875 287.8009033203125 85.60107421875Q332.600341796875 85.60107421875 356.5 100.3009033203125Q380.399658203125 115.000732421875 380.399658203125 146.000244140625Q380.399658203125 164.2000732421875 371.89971923828125 176.199951171875Q363.3997802734375 188.1998291015625 338.79998779296875 197.29974365234375Q314.2001953125 206.399658203125 266.6005859375 214.799560546875Q185.8001708984375 229.1995849609375 139.99993896484375 249.799560546875Q94.19970703125 270.3995361328125 75.599609375 301.39959716796875Q56.99951171875 332.399658203125 56.99951171875 377.599853515625Q56.99951171875 452.60009765625 114.49981689453125 499.3001708984375Q172.0001220703125 546.000244140625 283.2010498046875 546.000244140625Q360.4014892578125 546.000244140625 409.7017822265625 521.7002563476562Q459.0020751953125 497.4002685546875 484.4022216796875 456.60015869140625Q509.8023681640625 415.800048828125 514.0023193359375 366.399658203125L384.3997802734375 360.399658203125Q383.1998291015625 385.399658203125 371.99993896484375 405.3995361328125Q360.800048828125 425.3994140625 338.80029296875 436.8992919921875Q316.800537109375 448.399169921875 281.2010498046875 448.399169921875Q235.8017578125 448.399169921875 212.60198974609375 430.19940185546875Q189.4022216796875 411.9996337890625 189.4022216796875 382.39990234375Q189.4022216796875 360.8001708984375 198.7021484375 346.90032958984375Q208.0020751953125 333.00048828125 231.10186767578125 324.30059814453125Q254.20166015625 315.6007080078125 293.80126953125 309.2008056640625Q376.2015380859375 297.0008544921875 424.2017822265625 276.2008056640625Q472.2020263671875 255.4007568359375 492.502197265625 223.900634765625Q512.8023681640625 192.4005126953125 512.8023681640625 147.600341796875Q512.8023681640625 71.0001220703125 451.5020751953125 29.50006103515625Q390.2017822265625 -12 287.40087890625 -12Z"/>
  <path transform="translate(3976.00 2670.20) scale(1 -1)" d="M224.60009765625 -12Q141.4000244140625 -12 90.29986572265625 26.4000244140625Q39.19970703125 64.800048828125 39.19970703125 133.60009765625Q39.19970703125 203.2001953125 82.19989013671875 242.00018310546875Q125.2000732421875 280.8001708984375 212.60009765625 298.000244140625L390.199462890625 332.6002197265625Q390.199462890625 389.599609375 364.09979248046875 418.1993408203125Q338.0001220703125 446.799072265625 287.40087890625 446.799072265625Q240.8013916015625 446.799072265625 214.20172119140625 425.499267578125Q187.60205078125 404.199462890625 178.4022216796875 363.7998046875L48.19970703125 370.3997802734375Q63.5997314453125 454.600341796875 125.70001220703125 500.30029296875Q187.80029296875 546.000244140625 287.40087890625 546.000244140625Q401.401611328125 546.000244140625 459.8018798828125 488.70025634765625Q518.2021484375 431.4002685546875 518.2021484375 324.39990234375V129.8013916015625Q518.2021484375 108.6011962890625 525.502197265625 100.90118408203125Q532.80224609375 93.201171875 547.80224609375 93.201171875H564.802001953125V0Q558.8018798828125 -1.800048828125 545.401611328125 -3.10009765625Q532.0013427734375 -4.400146484375 518.401123046875 -4.400146484375Q485.2012939453125 -4.400146484375 459.30108642578125 6.49981689453125Q433.40087890625 17.3997802734375 419.0006103515625 43.4998779296875Q404.600341796875 69.5999755859375 404.600341796875 115.600341796875L416.200439453125 108Q407.600341796875 72.7999267578125 381.400390625 45.49993896484375Q355.200439453125 18.199951171875 315.00042724609375 3.0999755859375Q274.8004150390625 -12 224.60009765625 -12ZM251.001220703125 81.201171875Q293.6005859375 81.201171875 324.7001953125 97.90093994140625Q355.7998046875 114.6007080078125 372.9996337890625 144.900390625Q390.199462890625 175.2000732421875 390.199462890625 215.599853515625V245.599365234375L251.801513671875 217.599609375Q209.4022216796875 209.19970703125 190.5023193359375 191.4998779296875Q171.6024169921875 173.800048828125 171.6024169921875 145.600341796875Q171.6024169921875 115.000732421875 192.30206298828125 98.1009521484375Q213.001708984375 81.201171875 251.001220703125 81.201171875Z"/>
</g>
</svg>
