<svg version="1.1" xmlns="http://www.w3.org/2000/svg" style="display: block;" viewBox="0 0 2048 2048" width="1024" height="1024" preserveAspectRatio="none">
<path transform="translate(0,0)" fill="rgb(30,84,210)" d="M 0 0 L 414.272 0 L 1633.68 0 L 2048 0 L 2048 416.33 L 2048 1673.71 L 2048 2048 L 1672.45 2048 L 374.554 2048 L 0 2048 L 0 1674.65 L 0 421.238 L 0 0 z"/>
<path transform="translate(0,0)" fill="rgb(254,254,254)" d="M 0 0 L 414.272 0 C 383.992 5.17532 365.614 5.6335 334.426 13.7186 C 231.857 41.1421 142.152 103.667 80.928 190.408 C 44.104 242.138 18.9948 301.271 7.34796 363.692 C 4.1792 381.349 3.18761 406.892 0 421.238 L 0 0 z"/>
<path transform="translate(0,0)" fill="rgb(254,254,254)" d="M 1633.68 0 L 2048 0 L 2048 416.33 C 2046.77 411.298 2045.9 400.851 2045.25 395.322 C 2043.87 383.147 2042.06 371.027 2039.8 358.985 C 2027.76 298.253 2003.01 240.756 1967.17 190.268 C 1905.97 103.478 1816.24 40.9302 1713.64 13.5366 C 1681.43 5.27686 1664.42 5.07616 1633.68 0 z"/>
<path transform="translate(0,0)" fill="rgb(254,254,254)" d="M 0 1674.65 C 2.04508 1686.3 3.00163 1698.46 4.49546 1709.89 C 27.4224 1885.33 180.202 2030.52 356.294 2045.72 C 361.782 2046.19 369.291 2046.95 374.554 2048 L 0 2048 L 0 1674.65 z"/>
<path transform="translate(0,0)" fill="rgb(254,254,254)" d="M 2048 1673.71 L 2048 2048 L 1672.45 2048 C 1687.44 2044.56 1709.2 2044.2 1725.83 2041.16 C 1873.68 2014.14 1999.16 1897.12 2035.94 1751.31 C 2042.67 1724.59 2044.15 1700.82 2048 1673.71 z"/>
<path transform="translate(0,0)" fill="rgb(254,254,254)" d="M 1070.3 327.65 C 1109.1 343.26 1110.15 370.534 1119.88 406.838 C 1125.65 428.361 1131.82 449.774 1138.38 471.068 C 1158.7 533.849 1183.59 595.059 1212.85 654.206 C 1282.02 791.166 1377.28 923.007 1495.5 1021.8 C 1506.69 1030.61 1525.88 1043.87 1534.56 1053.61 C 1550.62 1071.77 1556.1 1096.97 1549.02 1120.16 C 1543.11 1139.42 1524.38 1162.34 1513.13 1180.28 C 1498.85 1202.94 1485.27 1226.02 1472.38 1249.5 C 1388.79 1401.3 1350.6 1547.76 1340.01 1719.91 L 708.696 1719.91 C 696.863 1529.32 645.295 1354.21 542.701 1191.98 C 515.948 1149.67 469.259 1102.29 515.363 1052.21 C 526.619 1039.99 542.99 1030.35 556 1019.32 C 583.244 996.325 609.133 971.767 633.535 945.772 C 759.762 813.089 847.302 658.372 905.681 485.729 C 914.347 459.306 922.327 432.664 929.614 405.828 C 940.072 367.26 937.997 348.154 976.205 328.156 L 976.579 328.517 C 978.08 333.525 977.607 373.156 977.611 380.396 L 977.649 498.081 L 977.44 1032.47 C 935.135 1050.03 902.778 1073.95 882.807 1116.47 C 865.098 1154.68 863.234 1198.35 877.621 1237.93 C 892.394 1277.03 921.912 1308.78 959.835 1326.35 C 997.568 1343.5 1040.61 1344.77 1079.29 1329.88 C 1117.86 1315.22 1149.1 1285.96 1166.25 1248.43 C 1183.39 1210.21 1184.65 1166.76 1169.77 1127.61 C 1150.27 1077.11 1118.27 1053.14 1070.72 1032.18 C 1069.32 1004.16 1070.16 968.889 1070.16 940.337 L 1070.19 777.528 L 1070.3 327.65 z"/>
</svg>